<svg width="25" height="24" viewBox="0 0 25 24" fill="none" xmlns="http://www.w3.org/2000/svg">
<path d="M19.4991 9.70957V9.00497C19.4991 5.13623 16.4774 2 12.75 2C9.02256 2 6.00087 5.13623 6.00087 9.00497V9.70957C6.00087 10.5552 5.75972 11.3818 5.3078 12.0854L4.20036 13.8095C3.18882 15.3843 3.96105 17.5249 5.72036 18.0229C10.3227 19.3257 15.1773 19.3257 19.7796 18.0229C21.539 17.5249 22.3112 15.3843 21.2996 13.8095L20.1922 12.0854C19.7403 11.3818 19.4991 10.5552 19.4991 9.70957Z" stroke="#6AD371" stroke-width="1.5"/>
<path d="M8.25 19C8.90503 20.7478 10.6725 22 12.75 22C14.8275 22 16.595 20.7478 17.25 19" stroke="#6AD371" stroke-width="1.5" stroke-linecap="round"/>
</svg>
