<svg width="24" height="24" viewBox="0 0 24 24" fill="none" xmlns="http://www.w3.org/2000/svg">
<mask id="mask0_319_7605" style="mask-type:luminance" maskUnits="userSpaceOnUse" x="3" y="3" width="18" height="19">
<path fill-rule="evenodd" clip-rule="evenodd" d="M3 3H20.1806V21.9395H3V3Z" fill="white"/>
</mask>
<g mask="url(#mask0_319_7605)">
<path fill-rule="evenodd" clip-rule="evenodd" d="M14.1103 5.01498L4.69528 16.79C4.52428 17.004 4.46128 17.28 4.52428 17.545L5.20528 20.43L8.24428 20.392C8.53328 20.389 8.80028 20.26 8.97728 20.04C12.1943 16.015 18.3273 8.34098 18.5013 8.11598C18.6653 7.84998 18.7293 7.47398 18.6433 7.11198C18.5553 6.74098 18.3243 6.42598 17.9913 6.22498C17.9203 6.17598 16.2353 4.86798 16.1833 4.82698C15.5493 4.31898 14.6243 4.40698 14.1103 5.01498ZM4.61327 21.9396C4.26627 21.9396 3.96427 21.7016 3.88327 21.3626L3.06427 17.8916C2.89527 17.1726 3.06327 16.4306 3.52427 15.8546L12.9443 4.07264C12.9483 4.06864 12.9513 4.06364 12.9553 4.05964C13.9883 2.82464 15.8563 2.64264 17.1163 3.65364C17.1663 3.69264 18.8393 4.99264 18.8393 4.99264C19.4473 5.35464 19.9223 6.00164 20.1023 6.76764C20.2813 7.52564 20.1513 8.30764 19.7343 8.96864C19.7033 9.01764 19.6763 9.05964 10.1483 20.9796C9.68927 21.5516 9.00127 21.8846 8.26227 21.8936L4.62327 21.9396H4.61327Z" fill="#6AD371"/>
</g>
<path fill-rule="evenodd" clip-rule="evenodd" d="M17.2234 11.6834C17.0634 11.6834 16.9034 11.6324 16.7664 11.5284L11.3144 7.3404C10.9864 7.0884 10.9244 6.6184 11.1764 6.2884C11.4294 5.9604 11.8994 5.8994 12.2284 6.1514L17.6814 10.3384C18.0094 10.5904 18.0714 11.0614 17.8184 11.3904C17.6714 11.5824 17.4484 11.6834 17.2234 11.6834Z" fill="#6AD371"/>
</svg>
