<svg width="25" height="24" viewBox="0 0 25 24" fill="none" xmlns="http://www.w3.org/2000/svg">
<path d="M12.2754 1C12.4564 1.00002 12.6099 1.03905 12.7188 1.08984L23.2734 12.0127V22.8857C23.1949 22.9373 23.0384 22.9999 22.8193 23H16.6543C16.3788 23 16.1727 22.9218 16.0635 22.8467C16.0406 22.831 16.0278 22.8152 16.0176 22.8057V16.4971C16.0176 15.866 15.6447 15.404 15.2646 15.1426C14.8802 14.8782 14.4043 14.7461 13.9268 14.7461H10.6201C10.1426 14.7461 9.66666 14.8782 9.28223 15.1426C8.90217 15.404 8.5293 15.866 8.5293 16.4971V22.8057C8.51909 22.8152 8.50623 22.831 8.4834 22.8467C8.37422 22.9218 8.16805 23 7.89258 23H1.72754C1.50845 22.9999 1.35194 22.9373 1.27344 22.8857L1.27344 12.0107L11.832 1.08984C11.9409 1.03909 12.0944 1 12.2754 1Z" stroke="#EEEEEE" stroke-width="2"/>
</svg>
