<svg width="24" height="24" viewBox="0 0 24 24" fill="none" xmlns="http://www.w3.org/2000/svg">
<path d="M13.6313 8.22333L13.2649 7.85695C11.7348 6.32687 10.9698 5.56183 10.1404 5.5625C9.86946 5.56272 9.6014 5.61798 9.35248 5.72494C8.59046 6.05234 8.19038 7.05759 7.39023 9.06807L7.33232 9.21357C7.10547 9.78354 6.99205 10.0685 6.80991 10.2984C6.67173 10.4728 6.50541 10.623 6.3178 10.7426C6.07051 10.9004 5.77544 10.9841 5.18529 11.1516C4.27018 11.4113 3.81262 11.5412 3.60956 11.8181C3.45866 12.024 3.39216 12.2797 3.42367 12.5329C3.46608 12.8737 3.80241 13.21 4.47505 13.8827L7.60554 17.0132C8.27818 17.6858 8.61451 18.0221 8.95529 18.0645C9.20854 18.0961 9.46427 18.0296 9.67008 17.8787C9.94703 17.6756 10.0769 17.218 10.3366 16.3029C10.5041 15.7128 10.5879 15.4177 10.7456 15.1704C10.8653 14.9828 11.0154 14.8165 11.1898 14.6783C11.4197 14.4962 11.7047 14.3827 12.2747 14.1559L12.4202 14.098C14.4306 13.2978 15.4359 12.8978 15.7633 12.1357C15.8702 11.8868 15.9255 11.6188 15.9257 11.3478C15.9264 10.5185 15.1614 9.75341 13.6313 8.22333Z" stroke="white" stroke-width="1.5"/>
<path d="M3.34728 18.143L6.04102 15.4492" stroke="white" stroke-width="1.5" stroke-linecap="round"/>
<path d="M22 8H17" stroke="white" stroke-width="1.5" stroke-linecap="round"/>
<path d="M22 12.5H18" stroke="white" stroke-width="1.5" stroke-linecap="round"/>
<path d="M22 17H13" stroke="white" stroke-width="1.5" stroke-linecap="round"/>
</svg>
