<svg width="25" height="24" viewBox="0 0 25 24" fill="none" xmlns="http://www.w3.org/2000/svg">
<path d="M10.3302 7.89712C11.4068 5.96571 11.9452 5 12.75 5C13.5548 5 14.0932 5.96571 15.1698 7.89712L15.4484 8.3968C15.7543 8.94564 15.9073 9.22007 16.1458 9.40114C16.3843 9.5822 16.6814 9.64942 17.2755 9.78384L17.8164 9.90622C19.9071 10.3793 20.9525 10.6158 21.2012 11.4156C21.4499 12.2153 20.7372 13.0487 19.3119 14.7154L18.9432 15.1466C18.5381 15.6203 18.3356 15.8571 18.2445 16.1501C18.1534 16.443 18.184 16.759 18.2453 17.3909L18.301 17.9662C18.5165 20.19 18.6242 21.3019 17.9731 21.7962C17.322 22.2905 16.3432 21.8398 14.3857 20.9385L13.8792 20.7053C13.323 20.4492 13.0448 20.3211 12.75 20.3211C12.4552 20.3211 12.177 20.4492 11.6208 20.7053L11.1143 20.9385C9.15677 21.8398 8.178 22.2905 7.52688 21.7962C6.87575 21.3019 6.9835 20.19 7.19899 17.9662L7.25474 17.3909C7.31597 16.759 7.34659 16.443 7.25548 16.1501C7.16438 15.8571 6.96186 15.6203 6.55683 15.1466L6.18808 14.7154C4.76276 13.0487 4.0501 12.2153 4.29881 11.4156C4.54751 10.6158 5.59288 10.3793 7.68361 9.90622L8.2245 9.78384C8.81862 9.64942 9.11568 9.5822 9.3542 9.40114C9.59272 9.22007 9.7457 8.94565 10.0516 8.3968L10.3302 7.89712Z" stroke="#6AD371" stroke-width="1.5"/>
<path d="M5.23987 2C5.23987 2 5.5278 3.45771 6.15909 4.08475C6.79037 4.71179 8.25 4.98987 8.25 4.98987C8.25 4.98987 6.79229 5.2778 6.16525 5.90909C5.53821 6.54037 5.26013 8 5.26013 8C5.26013 8 4.9722 6.54229 4.34091 5.91525C3.70963 5.28821 2.25 5.01013 2.25 5.01013C2.25 5.01013 3.70771 4.7222 4.33475 4.09091C4.96179 3.45963 5.23987 2 5.23987 2Z" stroke="#6AD371" stroke-linejoin="round"/>
<path d="M18.25 5H20.25M19.25 6L19.25 4" stroke="#6AD371" stroke-width="1.5" stroke-linecap="round"/>
</svg>
